<mxfile host="app.diagrams.net" modified="2024-05-27T16:46:23.511Z" agent="Mozilla/5.0 (Windows NT 10.0; Win64; x64) AppleWebKit/537.36 (KHTML, like Gecko) Chrome/125.0.0.0 Safari/537.36" etag="V_qlZW-4cigsU7Cf5AN1" version="24.4.9" type="github">
  <diagram id="C5RBs43oDa-KdzZeNtuy" name="Page-1">
    <mxGraphModel dx="1434" dy="790" grid="1" gridSize="10" guides="1" tooltips="1" connect="1" arrows="1" fold="1" page="1" pageScale="1" pageWidth="827" pageHeight="1169" math="0" shadow="0">
      <root>
        <mxCell id="WIyWlLk6GJQsqaUBKTNV-0" />
        <mxCell id="WIyWlLk6GJQsqaUBKTNV-1" parent="WIyWlLk6GJQsqaUBKTNV-0" />
        <mxCell id="3B2L9UqIKH3_lVULRcQp-2" value="" style="edgeStyle=orthogonalEdgeStyle;rounded=0;orthogonalLoop=1;jettySize=auto;html=1;" edge="1" parent="WIyWlLk6GJQsqaUBKTNV-1" source="3B2L9UqIKH3_lVULRcQp-0" target="3B2L9UqIKH3_lVULRcQp-1">
          <mxGeometry relative="1" as="geometry" />
        </mxCell>
        <mxCell id="3B2L9UqIKH3_lVULRcQp-0" value="图书信息" style="whiteSpace=wrap;html=1;" vertex="1" parent="WIyWlLk6GJQsqaUBKTNV-1">
          <mxGeometry x="50" y="50" width="120" height="60" as="geometry" />
        </mxCell>
        <mxCell id="3B2L9UqIKH3_lVULRcQp-6" value="" style="edgeStyle=orthogonalEdgeStyle;rounded=0;orthogonalLoop=1;jettySize=auto;html=1;" edge="1" parent="WIyWlLk6GJQsqaUBKTNV-1" source="3B2L9UqIKH3_lVULRcQp-1" target="3B2L9UqIKH3_lVULRcQp-5">
          <mxGeometry relative="1" as="geometry" />
        </mxCell>
        <mxCell id="3B2L9UqIKH3_lVULRcQp-1" value="扫描条形码获取用户编号和图书编号" style="whiteSpace=wrap;html=1;" vertex="1" parent="WIyWlLk6GJQsqaUBKTNV-1">
          <mxGeometry x="50" y="150" width="120" height="60" as="geometry" />
        </mxCell>
        <mxCell id="3B2L9UqIKH3_lVULRcQp-8" value="" style="edgeStyle=orthogonalEdgeStyle;rounded=0;orthogonalLoop=1;jettySize=auto;html=1;" edge="1" parent="WIyWlLk6GJQsqaUBKTNV-1" source="3B2L9UqIKH3_lVULRcQp-5" target="3B2L9UqIKH3_lVULRcQp-7">
          <mxGeometry relative="1" as="geometry" />
        </mxCell>
        <mxCell id="3B2L9UqIKH3_lVULRcQp-5" value="通过用户编号查询" style="whiteSpace=wrap;html=1;" vertex="1" parent="WIyWlLk6GJQsqaUBKTNV-1">
          <mxGeometry x="50" y="240" width="120" height="60" as="geometry" />
        </mxCell>
        <mxCell id="3B2L9UqIKH3_lVULRcQp-10" value="" style="edgeStyle=orthogonalEdgeStyle;rounded=0;orthogonalLoop=1;jettySize=auto;html=1;" edge="1" parent="WIyWlLk6GJQsqaUBKTNV-1" source="3B2L9UqIKH3_lVULRcQp-7" target="3B2L9UqIKH3_lVULRcQp-9">
          <mxGeometry relative="1" as="geometry" />
        </mxCell>
        <mxCell id="3B2L9UqIKH3_lVULRcQp-19" value="是" style="edgeLabel;html=1;align=center;verticalAlign=middle;resizable=0;points=[];" vertex="1" connectable="0" parent="3B2L9UqIKH3_lVULRcQp-10">
          <mxGeometry x="-0.0653" relative="1" as="geometry">
            <mxPoint as="offset" />
          </mxGeometry>
        </mxCell>
        <mxCell id="3B2L9UqIKH3_lVULRcQp-23" value="" style="edgeStyle=orthogonalEdgeStyle;rounded=0;orthogonalLoop=1;jettySize=auto;html=1;" edge="1" parent="WIyWlLk6GJQsqaUBKTNV-1" source="3B2L9UqIKH3_lVULRcQp-7" target="3B2L9UqIKH3_lVULRcQp-22">
          <mxGeometry relative="1" as="geometry" />
        </mxCell>
        <mxCell id="3B2L9UqIKH3_lVULRcQp-24" value="否" style="edgeLabel;html=1;align=center;verticalAlign=middle;resizable=0;points=[];" vertex="1" connectable="0" parent="3B2L9UqIKH3_lVULRcQp-23">
          <mxGeometry x="-0.119" y="1" relative="1" as="geometry">
            <mxPoint as="offset" />
          </mxGeometry>
        </mxCell>
        <mxCell id="3B2L9UqIKH3_lVULRcQp-7" value="根据用户state状态判断用户是否有效" style="rhombus;whiteSpace=wrap;html=1;" vertex="1" parent="WIyWlLk6GJQsqaUBKTNV-1">
          <mxGeometry x="50" y="330" width="120" height="80" as="geometry" />
        </mxCell>
        <mxCell id="3B2L9UqIKH3_lVULRcQp-12" value="" style="edgeStyle=orthogonalEdgeStyle;rounded=0;orthogonalLoop=1;jettySize=auto;html=1;" edge="1" parent="WIyWlLk6GJQsqaUBKTNV-1" source="3B2L9UqIKH3_lVULRcQp-9" target="3B2L9UqIKH3_lVULRcQp-11">
          <mxGeometry relative="1" as="geometry" />
        </mxCell>
        <mxCell id="3B2L9UqIKH3_lVULRcQp-20" value="是" style="edgeLabel;html=1;align=center;verticalAlign=middle;resizable=0;points=[];" vertex="1" connectable="0" parent="3B2L9UqIKH3_lVULRcQp-12">
          <mxGeometry x="-0.1714" y="1" relative="1" as="geometry">
            <mxPoint as="offset" />
          </mxGeometry>
        </mxCell>
        <mxCell id="3B2L9UqIKH3_lVULRcQp-25" style="edgeStyle=orthogonalEdgeStyle;rounded=0;orthogonalLoop=1;jettySize=auto;html=1;exitX=1;exitY=0.5;exitDx=0;exitDy=0;entryX=0.5;entryY=1;entryDx=0;entryDy=0;" edge="1" parent="WIyWlLk6GJQsqaUBKTNV-1" source="3B2L9UqIKH3_lVULRcQp-9" target="3B2L9UqIKH3_lVULRcQp-22">
          <mxGeometry relative="1" as="geometry" />
        </mxCell>
        <mxCell id="3B2L9UqIKH3_lVULRcQp-26" value="否" style="edgeLabel;html=1;align=center;verticalAlign=middle;resizable=0;points=[];" vertex="1" connectable="0" parent="3B2L9UqIKH3_lVULRcQp-25">
          <mxGeometry x="-0.618" y="1" relative="1" as="geometry">
            <mxPoint as="offset" />
          </mxGeometry>
        </mxCell>
        <mxCell id="3B2L9UqIKH3_lVULRcQp-9" value="用户借阅数量是否达到上限" style="rhombus;whiteSpace=wrap;html=1;" vertex="1" parent="WIyWlLk6GJQsqaUBKTNV-1">
          <mxGeometry x="50" y="480" width="120" height="80" as="geometry" />
        </mxCell>
        <mxCell id="3B2L9UqIKH3_lVULRcQp-14" value="" style="edgeStyle=orthogonalEdgeStyle;rounded=0;orthogonalLoop=1;jettySize=auto;html=1;" edge="1" parent="WIyWlLk6GJQsqaUBKTNV-1" source="3B2L9UqIKH3_lVULRcQp-11" target="3B2L9UqIKH3_lVULRcQp-13">
          <mxGeometry relative="1" as="geometry" />
        </mxCell>
        <mxCell id="3B2L9UqIKH3_lVULRcQp-11" value="通过图书编号查询表" style="whiteSpace=wrap;html=1;" vertex="1" parent="WIyWlLk6GJQsqaUBKTNV-1">
          <mxGeometry x="50" y="600" width="120" height="60" as="geometry" />
        </mxCell>
        <mxCell id="3B2L9UqIKH3_lVULRcQp-16" value="" style="edgeStyle=orthogonalEdgeStyle;rounded=0;orthogonalLoop=1;jettySize=auto;html=1;" edge="1" parent="WIyWlLk6GJQsqaUBKTNV-1" source="3B2L9UqIKH3_lVULRcQp-13" target="3B2L9UqIKH3_lVULRcQp-15">
          <mxGeometry relative="1" as="geometry" />
        </mxCell>
        <mxCell id="3B2L9UqIKH3_lVULRcQp-21" value="是" style="edgeLabel;html=1;align=center;verticalAlign=middle;resizable=0;points=[];" vertex="1" connectable="0" parent="3B2L9UqIKH3_lVULRcQp-16">
          <mxGeometry x="-0.1714" relative="1" as="geometry">
            <mxPoint as="offset" />
          </mxGeometry>
        </mxCell>
        <mxCell id="3B2L9UqIKH3_lVULRcQp-28" value="" style="edgeStyle=orthogonalEdgeStyle;rounded=0;orthogonalLoop=1;jettySize=auto;html=1;" edge="1" parent="WIyWlLk6GJQsqaUBKTNV-1" source="3B2L9UqIKH3_lVULRcQp-13" target="3B2L9UqIKH3_lVULRcQp-27">
          <mxGeometry relative="1" as="geometry" />
        </mxCell>
        <mxCell id="3B2L9UqIKH3_lVULRcQp-29" value="否" style="edgeLabel;html=1;align=center;verticalAlign=middle;resizable=0;points=[];" vertex="1" connectable="0" parent="3B2L9UqIKH3_lVULRcQp-28">
          <mxGeometry x="-0.1107" y="1" relative="1" as="geometry">
            <mxPoint as="offset" />
          </mxGeometry>
        </mxCell>
        <mxCell id="3B2L9UqIKH3_lVULRcQp-13" value="验证图书是否可查" style="rhombus;whiteSpace=wrap;html=1;" vertex="1" parent="WIyWlLk6GJQsqaUBKTNV-1">
          <mxGeometry x="50" y="700" width="120" height="80" as="geometry" />
        </mxCell>
        <mxCell id="3B2L9UqIKH3_lVULRcQp-18" value="" style="edgeStyle=orthogonalEdgeStyle;rounded=0;orthogonalLoop=1;jettySize=auto;html=1;" edge="1" parent="WIyWlLk6GJQsqaUBKTNV-1" source="3B2L9UqIKH3_lVULRcQp-15" target="3B2L9UqIKH3_lVULRcQp-17">
          <mxGeometry relative="1" as="geometry" />
        </mxCell>
        <mxCell id="3B2L9UqIKH3_lVULRcQp-15" value="生成查询信息" style="whiteSpace=wrap;html=1;" vertex="1" parent="WIyWlLk6GJQsqaUBKTNV-1">
          <mxGeometry x="50" y="820" width="120" height="60" as="geometry" />
        </mxCell>
        <mxCell id="3B2L9UqIKH3_lVULRcQp-17" value="返回成功信息" style="whiteSpace=wrap;html=1;" vertex="1" parent="WIyWlLk6GJQsqaUBKTNV-1">
          <mxGeometry x="50" y="910" width="120" height="60" as="geometry" />
        </mxCell>
        <mxCell id="3B2L9UqIKH3_lVULRcQp-31" style="edgeStyle=orthogonalEdgeStyle;rounded=0;orthogonalLoop=1;jettySize=auto;html=1;" edge="1" parent="WIyWlLk6GJQsqaUBKTNV-1" source="3B2L9UqIKH3_lVULRcQp-22">
          <mxGeometry relative="1" as="geometry">
            <mxPoint x="170" y="80" as="targetPoint" />
            <Array as="points">
              <mxPoint x="300" y="80" />
            </Array>
          </mxGeometry>
        </mxCell>
        <mxCell id="3B2L9UqIKH3_lVULRcQp-22" value="返回错误信息&lt;div&gt;用户不可借阅&lt;/div&gt;" style="whiteSpace=wrap;html=1;" vertex="1" parent="WIyWlLk6GJQsqaUBKTNV-1">
          <mxGeometry x="230" y="340" width="120" height="60" as="geometry" />
        </mxCell>
        <mxCell id="3B2L9UqIKH3_lVULRcQp-30" style="edgeStyle=orthogonalEdgeStyle;rounded=0;orthogonalLoop=1;jettySize=auto;html=1;entryX=1;entryY=0.5;entryDx=0;entryDy=0;" edge="1" parent="WIyWlLk6GJQsqaUBKTNV-1" source="3B2L9UqIKH3_lVULRcQp-27" target="3B2L9UqIKH3_lVULRcQp-0">
          <mxGeometry relative="1" as="geometry">
            <Array as="points">
              <mxPoint x="390" y="740" />
              <mxPoint x="390" y="80" />
            </Array>
          </mxGeometry>
        </mxCell>
        <mxCell id="3B2L9UqIKH3_lVULRcQp-27" value="返回错误信息&lt;div&gt;图书不可借阅&lt;/div&gt;" style="whiteSpace=wrap;html=1;" vertex="1" parent="WIyWlLk6GJQsqaUBKTNV-1">
          <mxGeometry x="220" y="710" width="120" height="60" as="geometry" />
        </mxCell>
      </root>
    </mxGraphModel>
  </diagram>
</mxfile>
